<?xml version="1.0" standalone="no"?>
<!DOCTYPE svg PUBLIC "-//W3C//DTD SVG 20010904//EN"
 "http://www.w3.org/TR/2001/REC-SVG-20010904/DTD/svg10.dtd">
<svg version="1.0" xmlns="http://www.w3.org/2000/svg"
 width="2016.000000pt" height="1512.000000pt" viewBox="0 0 2016.000000 1512.000000"
 preserveAspectRatio="xMidYMid meet">

<g transform="translate(0.000000,1512.000000) scale(0.100000,-0.100000)"
fill="#000000" stroke="none">
<path d="M6787 14039 c-90 -13 -172 -58 -252 -138 -38 -39 -76 -70 -82 -71 -8
0 -13 -13 -13 -30 0 -16 -4 -30 -10 -30 -5 0 -13 -18 -16 -40 -4 -24 -12 -40
-20 -40 -8 0 -13 -9 -11 -22 1 -18 -4 -24 -23 -26 -57 -6 -98 -23 -103 -42 -3
-11 -1 -20 4 -20 5 0 9 -4 9 -8 0 -5 -13 -9 -30 -9 -32 0 -37 6 -19 24 16 16
-106 59 -253 88 -10 2 -26 -6 -35 -19 -26 -33 -45 -42 -41 -20 2 11 -7 24 -25
33 -24 14 -29 14 -37 1 -9 -13 -11 -13 -20 0 -5 8 -10 26 -10 39 0 28 -16 18
-22 -13 -3 -18 -4 -19 -20 -2 -9 9 -15 23 -12 31 4 9 0 15 -9 15 -8 0 -17 7
-21 15 -6 18 -36 20 -36 3 0 -6 -8 -4 -19 6 -15 13 -20 14 -24 4 -4 -10 -8
-10 -16 2 -10 13 -11 13 -11 0 0 -13 -1 -13 -10 0 -8 12 -10 11 -10 -7 0 -13
-4 -23 -10 -23 -5 0 -10 4 -10 8 0 5 -11 14 -25 20 -20 9 -25 9 -25 -3 0 -8
-17 -19 -39 -25 -34 -9 -38 -13 -33 -32 5 -22 5 -22 -19 -7 -31 19 -57 14 -61
-14 -3 -21 -6 -19 -41 16 -39 41 -51 37 -17 -6 24 -30 26 -47 4 -47 -12 0 -15
-6 -10 -25 5 -19 3 -23 -9 -19 -8 4 -15 11 -15 18 -2 28 -30 -73 -30 -106 0
-31 -3 -35 -20 -31 -11 3 -20 2 -20 -2 0 -4 9 -18 20 -32 11 -14 20 -34 20
-43 0 -10 7 -23 15 -30 8 -7 12 -17 8 -23 -3 -5 2 -16 13 -24 16 -12 17 -15 4
-23 -11 -7 -9 -11 12 -21 46 -20 43 -38 -15 -98 -29 -31 -68 -78 -87 -106 -19
-27 -68 -84 -110 -126 -41 -42 -84 -89 -96 -105 -37 -50 -85 -150 -91 -190 -4
-21 -21 -58 -40 -82 -18 -24 -36 -55 -40 -70 -3 -15 -14 -40 -24 -57 -9 -16
-25 -55 -34 -85 -10 -30 -26 -66 -36 -79 -11 -13 -19 -28 -19 -34 0 -5 -11
-33 -24 -61 -14 -29 -28 -65 -32 -81 -4 -17 -15 -41 -25 -54 -10 -12 -21 -38
-25 -55 -4 -26 -13 -35 -40 -45 -40 -14 -104 -67 -104 -85 0 -7 -16 -27 -35
-46 -19 -19 -51 -59 -71 -90 -20 -30 -52 -67 -72 -81 -21 -14 -58 -57 -85 -95
-26 -39 -72 -99 -103 -135 -52 -60 -112 -161 -129 -219 -11 -40 -57 -144 -71
-160 -11 -14 -75 -171 -88 -215 -9 -32 -49 -288 -48 -309 1 -11 10 -31 20 -46
16 -21 20 -49 24 -155 4 -92 13 -161 32 -235 14 -57 23 -114 20 -125 -3 -13
-2 -16 4 -7 6 9 12 2 20 -24 6 -21 9 -41 6 -46 -3 -4 -1 -8 4 -8 12 0 44 -69
37 -81 -4 -5 -1 -9 5 -9 7 0 9 -7 6 -16 -3 -8 -2 -13 3 -10 12 8 32 -50 24
-70 -3 -9 0 -14 8 -12 9 2 14 -5 13 -19 0 -12 3 -20 7 -17 8 4 25 -35 21 -48
-1 -5 2 -8 7 -8 12 0 44 -118 37 -136 -3 -8 -2 -13 3 -10 9 6 33 -63 25 -76
-3 -4 0 -8 5 -8 18 0 12 -95 -10 -188 -18 -72 -21 -104 -16 -185 6 -87 4 -103
-15 -143 -12 -24 -25 -44 -30 -44 -4 0 -5 -7 -2 -15 4 -8 2 -15 -4 -15 -5 0
-10 -6 -9 -12 1 -32 -4 -49 -12 -44 -5 3 -9 0 -8 -7 1 -37 -4 -68 -11 -63 -4
2 -6 -12 -4 -32 3 -37 -3 -64 -53 -227 -15 -49 -42 -148 -59 -218 -18 -70 -35
-125 -38 -121 -12 11 -30 -78 -23 -115 4 -25 3 -31 -4 -22 -7 11 -11 6 -16
-22 -4 -20 -5 -43 -2 -52 4 -8 2 -17 -3 -20 -6 -4 -7 -17 -4 -31 4 -14 2 -24
-5 -24 -6 0 -8 -11 -5 -28 4 -17 -7 -83 -26 -158 -30 -124 -107 -413 -117
-444 -3 -8 -8 -31 -10 -50 -2 -19 -8 -36 -12 -38 -5 -2 -7 -13 -4 -25 4 -16 2
-18 -5 -8 -8 10 -12 6 -17 -19 -4 -20 -10 -28 -15 -21 -10 17 -30 -36 -27 -71
1 -14 4 -25 7 -23 3 2 5 -14 5 -36 0 -21 -2 -39 -6 -39 -3 0 -6 -21 -7 -47 -1
-51 -45 -186 -62 -191 -6 -2 -8 -8 -5 -13 6 -8 -48 -198 -66 -231 -5 -10 -9
-24 -9 -31 0 -13 -38 -68 -75 -110 -16 -19 -16 -19 35 -31 14 -3 90 -13 170
-21 80 -8 161 -19 180 -25 52 -15 195 -12 296 6 49 8 148 19 221 24 72 4 136
11 142 15 13 7 15 82 2 89 -4 3 -14 27 -21 53 -9 31 -25 58 -44 75 l-31 26 20
38 c11 21 43 72 71 114 66 100 100 201 234 713 33 125 67 244 75 265 21 49
125 418 158 557 14 61 35 169 47 240 11 72 34 163 50 205 40 105 80 254 80
299 0 22 11 146 25 277 14 132 28 310 32 397 3 86 9 157 13 157 4 0 31 -28 61
-62 85 -98 173 -183 278 -265 125 -100 192 -170 257 -268 49 -75 152 -277 219
-430 26 -62 124 -211 148 -226 5 -4 7 -34 2 -75 -8 -83 8 -192 38 -254 16 -34
23 -73 27 -155 4 -60 12 -175 18 -255 22 -276 44 -736 37 -783 -9 -62 23 -385
41 -414 23 -36 17 -118 -11 -176 -22 -43 -24 -55 -14 -78 12 -31 20 -34 90
-44 37 -6 57 -2 100 18 131 60 132 60 409 53 162 -4 270 -2 295 4 134 34 236
50 326 50 54 0 99 4 99 8 0 4 13 13 30 19 18 7 34 23 41 39 12 33 4 87 -16
107 -7 8 -67 24 -132 37 -65 13 -143 32 -173 43 -30 11 -77 27 -105 37 -27 10
-49 23 -47 30 7 30 40 64 78 81 24 10 51 30 60 45 17 25 17 28 1 55 -15 27
-15 29 3 39 10 5 35 10 55 10 47 0 70 13 84 48 12 28 14 28 89 28 76 0 152 17
152 35 0 5 6 9 14 9 8 0 27 16 43 35 27 32 142 108 244 160 61 32 247 226 359
377 14 18 39 47 55 65 29 29 34 31 76 23 25 -5 121 -39 215 -75 269 -106 393
-144 449 -137 l48 5 -8 -107 c-4 -62 -13 -120 -22 -138 -13 -26 -14 -38 -4
-77 7 -25 17 -82 22 -125 5 -44 14 -83 21 -88 8 -4 14 -32 15 -65 1 -32 5
-129 9 -215 l6 -158 37 -10 c59 -16 110 -12 139 11 26 21 32 21 284 14 179 -5
261 -4 270 4 7 6 26 21 42 34 27 22 28 24 15 66 -14 46 -36 61 -93 61 -49 0
-144 28 -176 52 -19 13 -30 31 -30 45 0 13 -7 40 -15 59 -11 26 -12 41 -4 55
5 11 6 25 2 32 -4 6 -8 93 -9 192 0 99 -6 205 -12 235 -7 30 -30 149 -52 265
-23 115 -48 221 -57 235 -26 40 -104 114 -153 145 -25 16 -60 42 -78 57 -28
24 -38 27 -73 22 -70 -12 -115 11 -204 101 -44 45 -97 89 -118 99 -27 12 -37
22 -33 33 7 18 -7 79 -37 151 -18 45 -19 57 -9 85 18 49 1 165 -32 221 -16 28
-26 60 -26 85 0 23 -9 63 -19 91 -21 55 -13 66 16 21 10 -16 40 -46 66 -66 44
-34 58 -38 155 -52 59 -7 143 -20 188 -27 97 -15 140 -5 164 40 l17 29 124 0
c105 0 138 -5 213 -27 50 -15 101 -25 115 -22 28 6 71 58 71 86 0 8 9 23 20
33 19 17 21 17 39 1 17 -16 19 -14 45 24 23 36 26 47 20 88 -3 26 -10 54 -15
63 -6 12 8 26 69 62 42 26 101 68 131 95 l54 47 -6 -35 c-4 -19 -11 -98 -17
-175 -18 -231 -29 -365 -40 -469 -12 -113 -5 -135 55 -163 36 -17 44 -40 23
-61 -13 -13 -15 -88 -4 -192 8 -72 7 -76 -18 -103 -14 -15 -26 -32 -26 -37 0
-5 -14 -25 -30 -43 -28 -32 -31 -43 -39 -148 -8 -101 -14 -123 -47 -193 -31
-66 -38 -90 -38 -143 0 -49 5 -70 21 -92 l22 -28 -25 -22 c-13 -11 -25 -31
-25 -43 -3 -59 1 -180 6 -189 4 -5 7 -112 7 -238 0 -200 -3 -236 -20 -293 -15
-49 -18 -75 -12 -102 4 -21 10 -39 12 -41 2 -2 73 -5 158 -7 135 -3 159 -1
189 15 33 19 34 19 27 75 -4 31 -12 62 -18 69 -15 19 -15 280 1 373 7 41 19
89 26 105 24 51 55 153 62 200 3 28 11 45 19 45 25 0 35 40 32 128 l-3 87 48
46 c52 50 66 86 67 170 0 44 1 46 27 45 23 -1 31 6 46 37 10 21 25 66 34 100
8 34 23 78 32 97 10 19 28 85 41 145 l23 110 138 2 137 2 65 -102 c63 -98 124
-201 155 -260 8 -16 18 -58 22 -94 10 -75 34 -109 86 -119 30 -5 32 -8 23 -26
-22 -41 0 -79 112 -192 94 -95 107 -113 102 -136 -7 -35 19 -95 51 -115 14 -9
37 -36 51 -60 14 -25 31 -48 39 -52 7 -4 33 -44 56 -88 24 -44 54 -93 66 -108
13 -15 28 -44 33 -63 5 -19 23 -56 39 -82 17 -26 38 -73 48 -104 l18 -58 50 0
c85 0 298 31 353 52 28 10 57 25 63 33 18 22 28 18 32 -12 l3 -28 180 3 c207
3 320 16 364 43 31 18 31 20 25 76 -8 74 -46 138 -96 161 -34 15 -52 42 -29
42 5 0 11 10 15 23 4 16 -1 28 -18 43 -14 12 -30 24 -37 26 -8 3 -5 16 10 46
11 22 21 58 21 78 0 40 -30 89 -60 99 -28 9 -25 16 19 46 52 37 59 68 27 134
-37 75 -38 162 -2 360 26 145 29 184 32 415 1 140 -2 275 -7 299 -7 34 -7 46
4 55 22 17 76 104 83 131 3 14 -2 46 -11 73 l-18 49 34 49 c33 47 34 52 32
134 l-1 85 59 -3 c67 -4 250 33 262 53 8 14 191 79 206 73 22 -7 121 -154 121
-179 0 -14 11 -36 24 -48 13 -13 34 -50 47 -82 19 -53 20 -63 8 -85 -12 -23
-11 -27 10 -43 20 -15 21 -19 7 -30 -25 -21 -19 -38 22 -58 42 -22 53 -48 24
-57 -28 -9 -33 -42 -11 -70 11 -14 16 -31 13 -40 -4 -10 1 -25 11 -36 17 -19
17 -21 2 -38 -12 -13 -17 -37 -17 -83 0 -35 -5 -95 -11 -134 -33 -231 -30
-453 10 -653 11 -53 21 -121 22 -150 3 -46 0 -56 -24 -78 -15 -14 -27 -34 -27
-45 0 -23 27 -79 38 -79 4 0 13 -4 20 -9 12 -7 11 -14 -2 -40 -9 -17 -20 -31
-24 -31 -4 0 -13 -10 -21 -22 -12 -19 -11 -23 5 -35 10 -7 28 -13 39 -13 21 0
22 -4 20 -67 -2 -59 -5 -69 -24 -78 -19 -9 -21 -18 -21 -86 0 -41 3 -79 7 -83
8 -7 9 -11 12 -37 2 -18 391 -5 471 15 42 11 128 19 244 23 143 4 186 9 210
23 30 16 31 19 34 101 4 111 -1 124 -51 153 -57 33 -104 40 -170 26 -51 -12
-62 -11 -134 12 -43 14 -103 32 -133 41 -31 9 -65 23 -75 31 -19 14 -19 15 8
25 30 12 32 21 16 105 -8 47 -8 61 4 74 34 41 57 173 57 333 0 51 10 140 26
220 33 172 47 378 35 537 l-10 122 26 26 c21 21 24 32 19 62 -3 20 -6 53 -6
73 0 27 -5 38 -18 41 -16 5 -17 13 -12 68 5 55 3 66 -15 89 -38 45 -45 67 -39
115 5 34 1 63 -15 109 -11 35 -28 97 -36 138 -76 390 -136 597 -191 660 -8 9
-23 45 -33 80 -18 61 -84 217 -129 305 -12 23 -38 52 -58 65 -35 21 -36 23
-30 68 18 130 29 240 28 276 -1 53 -59 340 -78 390 -8 22 -21 67 -28 100 -35
157 -59 232 -86 266 -16 20 -33 59 -40 92 -6 31 -27 85 -45 120 -19 36 -46 95
-60 132 -30 82 -117 245 -142 268 -10 8 -54 33 -98 53 -44 21 -82 41 -85 45
-3 4 -51 26 -107 50 -57 24 -103 49 -103 55 0 7 -7 20 -17 29 -13 13 -27 15
-73 10 -54 -6 -58 -5 -89 25 -24 25 -37 31 -56 26 -18 -5 -25 -1 -30 14 -8 25
-84 98 -110 106 -124 35 -158 62 -119 95 22 18 10 105 -27 192 -16 38 -27 72
-25 76 3 4 -8 15 -25 25 -16 9 -29 26 -29 37 0 13 -7 19 -22 19 -25 1 -58 22
-58 37 0 14 -87 38 -122 34 -16 -1 -28 2 -28 8 0 5 -21 13 -46 17 -37 5 -59 1
-115 -21 -39 -15 -79 -25 -89 -22 -11 3 -20 1 -20 -4 0 -5 -6 -9 -14 -9 -7 0
-19 -7 -26 -15 -7 -8 -20 -15 -30 -15 -10 0 -23 -7 -30 -15 -7 -8 -16 -12 -21
-9 -5 3 -9 -1 -9 -8 0 -9 -3 -9 -10 2 -5 8 -10 11 -10 5 0 -5 -5 -3 -10 5 -7
11 -10 7 -10 -17 0 -22 -10 -42 -31 -65 -37 -39 -52 -74 -43 -100 3 -12 -2
-25 -14 -36 -31 -26 -43 -96 -31 -172 6 -36 12 -83 14 -105 1 -22 12 -60 24
-85 22 -49 27 -80 11 -80 -13 0 -13 -64 1 -110 10 -34 9 -40 -22 -86 -19 -27
-41 -56 -49 -64 -18 -18 -74 -124 -85 -160 -4 -14 -16 -45 -28 -70 -19 -43
-19 -47 -3 -107 9 -34 16 -86 16 -117 0 -54 -2 -59 -59 -127 -55 -65 -60 -76
-71 -142 -6 -40 -18 -85 -25 -102 -78 -172 -116 -260 -135 -315 -13 -36 -24
-66 -26 -68 -1 -2 -13 8 -27 22 -16 16 -37 26 -56 26 -28 0 -29 2 -22 28 11
39 4 50 -35 58 l-35 6 25 27 c36 38 52 113 37 176 -7 28 -21 96 -31 152 -10
56 -25 112 -34 125 -8 13 -17 39 -21 59 -7 40 -45 69 -92 69 -22 0 -25 2 -13
10 11 8 8 9 -12 4 -26 -6 -157 30 -168 47 -7 11 -192 -30 -211 -47 -8 -8 -20
-14 -25 -14 -17 0 -105 -99 -120 -135 -12 -29 -19 -35 -34 -30 -12 4 -20 2
-20 -4 0 -6 -6 -11 -14 -11 -8 0 -17 -7 -20 -16 -9 -24 -8 -26 12 -16 34 18
40 5 26 -56 -8 -31 -11 -66 -8 -77 9 -29 60 -143 89 -198 14 -26 23 -52 20
-57 -8 -12 24 -82 42 -93 20 -13 15 -25 -16 -42 -16 -8 -32 -24 -36 -34 -9
-30 15 -101 35 -101 12 0 16 -10 17 -35 1 -19 -3 -33 -8 -30 -14 9 -51 -15
-98 -64 -37 -38 -44 -52 -43 -83 1 -30 -5 -42 -30 -63 -27 -23 -33 -24 -47
-12 -37 33 -60 31 -97 -9 -20 -23 -37 -53 -40 -75 -5 -32 -13 -39 -69 -68 -71
-37 -90 -64 -69 -102 7 -13 11 -36 8 -50 -4 -23 23 -91 77 -192 8 -15 2 -26
-35 -60 -33 -31 -46 -52 -51 -82 -14 -84 -43 -161 -70 -190 -15 -17 -38 -46
-51 -66 -12 -20 -57 -65 -98 -98 -44 -36 -87 -82 -103 -109 -15 -26 -37 -61
-50 -78 -35 -48 -44 -87 -31 -150 10 -53 10 -54 -23 -98 -19 -25 -40 -48 -47
-50 -20 -8 -165 22 -174 36 -4 7 -6 23 -3 35 4 19 -1 24 -32 32 -21 6 -47 11
-59 11 -24 0 -116 26 -159 45 -16 7 -53 21 -82 30 -55 17 -83 47 -83 89 0 47
-76 114 -139 120 -22 3 -28 11 -39 49 -12 43 -17 48 -63 64 -43 15 -53 24 -69
61 -11 23 -32 50 -47 59 -20 11 -43 45 -76 113 -47 97 -64 156 -32 114 18 -24
20 -5 2 21 -23 34 -27 63 -8 68 14 4 14 5 -1 6 -19 1 -23 15 -32 96 -4 34 -3
45 4 35 8 -12 10 -11 10 8 0 12 -6 22 -12 22 -21 0 -47 54 -36 74 7 12 3 19
-17 28 -23 10 -26 17 -23 50 2 21 1 38 -3 38 -4 0 -10 16 -14 36 -3 20 -17 47
-31 61 -13 13 -24 26 -24 29 0 7 -27 34 -33 34 -3 0 -22 16 -41 35 -20 19 -45
35 -56 35 -10 0 -31 5 -47 11 -38 16 -54 18 -153 20 -64 2 -88 6 -97 18 -11
15 -12 15 -13 0 0 -23 -21 -38 -57 -42 -16 -2 -43 -13 -60 -25 -17 -12 -34
-18 -38 -14 -5 4 -5 1 -1 -5 4 -7 3 -13 -2 -13 -5 0 -14 -10 -20 -22 -10 -22
-11 -22 -12 7 l-1 30 -13 -30 c-7 -16 -12 -33 -10 -36 2 -4 -11 -13 -28 -20
-18 -7 -60 -41 -95 -74 l-62 -62 -10 29 c-6 16 -19 41 -29 56 -11 15 -29 59
-41 99 -12 39 -38 96 -57 125 -55 80 -118 218 -120 261 -1 21 -9 46 -17 55 -8
9 -17 48 -21 86 -4 38 -12 78 -17 88 -8 14 -7 28 1 47 14 34 4 81 -17 81 -13
0 -14 21 -9 153 3 83 6 159 7 167 1 8 -1 131 -5 273 -8 300 -2 337 47 337 42
0 97 21 97 37 0 8 10 17 23 22 13 5 28 24 36 47 7 22 18 45 24 52 6 7 11 30
11 50 1 29 5 36 19 34 26 -4 21 4 -28 54 -25 25 -43 49 -41 53 3 4 -8 21 -23
38 -24 27 -29 41 -35 118 -4 62 -3 92 6 102 8 10 8 17 1 21 -5 4 -13 31 -16
61 -4 29 -15 69 -26 87 -12 19 -35 69 -52 110 l-32 76 21 36 c24 44 64 161 57
171 -2 4 5 15 17 25 15 13 18 25 14 44 -23 102 -27 144 -19 184 5 24 6 50 2
58 -4 8 -11 36 -14 63 -3 26 -10 47 -16 47 -5 0 -9 6 -9 13 0 7 -13 26 -29 43
-15 16 -38 49 -50 74 -62 127 -87 150 -176 165 -22 4 -47 8 -55 10 -8 1 -41
-1 -73 -6z m-337 -2824 c0 -8 25 -90 54 -182 30 -93 68 -211 85 -263 16 -52
34 -108 40 -125 6 -16 13 -42 16 -58 3 -15 21 -45 40 -66 19 -21 35 -42 35
-47 0 -8 76 -124 296 -452 49 -74 97 -148 107 -165 10 -18 33 -50 50 -71 24
-31 26 -38 11 -32 -30 13 -114 20 -114 9 0 -5 -16 -7 -35 -5 -19 2 -35 8 -35
13 0 19 -42 31 -67 20 -22 -10 -29 -7 -67 31 -39 39 -127 110 -163 131 -8 5
-23 0 -39 -12 l-27 -21 -41 37 c-61 55 -146 155 -151 178 -2 11 -7 56 -10 100
-5 62 -16 103 -52 190 -30 72 -46 129 -49 165 -2 41 -8 59 -24 72 -11 9 -16
19 -11 22 21 13 19 48 -4 68 -19 17 -22 26 -17 61 3 23 9 44 13 47 4 3 7 60 5
127 l-3 121 36 28 c19 16 51 44 70 61 40 36 51 40 51 18z m5414 -495 c30 -59
87 -130 105 -130 6 0 15 -19 21 -41 7 -23 20 -54 31 -68 10 -14 22 -48 25 -76
4 -27 13 -60 20 -72 21 -33 18 -46 -7 -33 -16 9 -26 8 -46 -6 -39 -25 -71 -65
-84 -104 -7 -19 -20 -46 -30 -59 -11 -13 -19 -28 -19 -33 0 -12 -41 -47 -56
-48 -16 0 -26 28 -19 51 8 24 -21 125 -45 159 -13 19 -19 50 -21 130 -4 88 -8
110 -26 136 -22 30 -22 31 -4 85 11 30 26 80 35 112 17 56 17 57 54 57 35 -1
39 -4 66 -60z m-5528 -798 c6 -4 36 -44 67 -88 31 -45 64 -87 72 -94 19 -16
19 -54 0 -70 -9 -7 -17 -11 -19 -9 -1 2 -20 36 -40 74 -21 39 -50 86 -65 105
-37 48 -55 90 -38 90 6 0 17 -4 23 -8z m5947 -33 c27 -7 37 -15 37 -30 0 -11
6 -32 14 -47 7 -15 17 -49 21 -77 4 -27 15 -72 25 -100 10 -27 20 -79 23 -115
6 -63 49 -199 68 -211 19 -12 69 -159 63 -187 -3 -16 -1 -47 6 -70 10 -38 9
-46 -10 -69 -11 -14 -20 -34 -20 -44 0 -10 -4 -21 -10 -24 -14 -9 -12 -48 4
-70 12 -17 12 -21 -6 -33 -16 -12 -19 -25 -18 -86 1 -70 -3 -97 -35 -251 -29
-140 -22 -679 10 -790 14 -49 16 -87 12 -205 -5 -137 -4 -149 20 -208 19 -48
22 -66 13 -77 -9 -10 -8 -20 3 -42 25 -49 27 -79 11 -132 -8 -28 -14 -57 -12
-64 1 -6 -3 -25 -10 -42 -12 -29 -15 -30 -70 -29 -95 2 -99 3 -139 42 -53 52
-67 76 -113 199 -22 59 -49 122 -60 141 -21 35 -50 156 -50 209 0 46 -18 80
-52 94 -38 16 -50 40 -42 87 6 39 -3 67 -29 94 -30 31 -55 77 -77 142 l-23 70
23 42 c20 36 22 46 11 71 -15 38 -58 62 -121 70 -43 5 -52 10 -69 38 -19 33
-19 33 5 82 29 60 32 135 6 161 -18 18 -18 20 5 42 23 22 24 29 18 79 -4 30
-11 65 -16 78 -5 13 -13 95 -19 181 -10 158 -21 251 -46 397 -7 44 -23 141
-33 216 -11 75 -25 149 -31 164 -6 15 -9 29 -7 32 2 2 33 -3 68 -12 202 -47
329 13 566 268 29 30 33 31 86 16z m-5647 -433 c8 -11 14 -17 14 -12 0 4 14
-4 31 -18 17 -14 37 -26 45 -26 9 0 12 -4 9 -10 -3 -5 0 -10 8 -10 8 0 20 -13
27 -30 7 -16 21 -32 31 -35 10 -4 19 -11 19 -16 0 -5 3 -8 8 -7 4 1 25 -6 47
-16 57 -25 141 -23 171 5 l22 21 34 -38 35 -37 104 11 c103 10 104 10 127 -14
12 -12 22 -31 22 -40 0 -9 6 -28 14 -42 21 -42 38 -93 46 -142 7 -43 18 -88
46 -191 8 -30 9 -61 4 -90 -14 -76 -10 -180 12 -253 14 -49 18 -82 13 -113 -8
-55 26 -165 64 -202 17 -18 25 -37 25 -61 0 -68 -13 -206 -29 -305 -9 -55 -15
-117 -13 -137 2 -26 -1 -38 -9 -38 -7 0 -19 -11 -28 -23 -8 -13 -26 -29 -38
-36 -13 -7 -31 -26 -41 -42 -9 -16 -26 -29 -36 -29 -18 0 -79 -29 -130 -62
-14 -9 -37 -20 -52 -23 -19 -5 -33 -20 -48 -50 -14 -30 -31 -47 -53 -55 -18
-7 -41 -16 -52 -20 -11 -5 -45 -16 -75 -26 -30 -9 -76 -27 -102 -39 l-47 -22
-6 76 c-3 42 -10 119 -15 171 -15 148 -20 289 -30 800 -9 447 -27 755 -48 810
-5 14 -7 31 -5 38 3 6 0 12 -5 12 -10 0 -45 80 -40 91 2 3 -5 14 -15 24 -10
10 -15 25 -12 33 3 9 3 13 -1 9 -8 -7 -26 24 -52 88 -9 22 -33 69 -53 104 -45
78 -42 102 8 64 19 -14 41 -36 49 -47z"/>
</g>
</svg>
